HIERARCHY
ROOT Hips
{
	OFFSET -0.001795 -0.223333 0.028219
	CHANNELS 6 Xposition Yposition Zposition Zrotation Yrotation Xrotation 
	JOINT LeftUpLeg
	{
		OFFSET 0.069520 -0.091406 -0.006815
		CHANNELS 3 Zrotation Yrotation Xrotation
		JOINT LeftLeg
		{
			OFFSET 0.034277 -0.375199 -0.004496
			CHANNELS 3 Zrotation Yrotation Xrotation
			JOINT LeftFoot
			{
				OFFSET -0.013596 -0.397961 -0.043693
				CHANNELS 3 Zrotation Yrotation Xrotation
				JOINT LeftToe
				{
					OFFSET 0.026358 -0.055791 0.119288
					CHANNELS 3 Zrotation Yrotation Xrotation
					End Site
					{
						OFFSET 0.000000 0.000000 0.000000
					}
				}
			}
		}
	}
	JOINT RightUpLeg
	{
		OFFSET -0.067670 -0.090522 -0.004320
		CHANNELS 3 Zrotation Yrotation Xrotation
		JOINT RightLeg
		{
			OFFSET -0.038290 -0.382569 -0.008850
			CHANNELS 3 Zrotation Yrotation Xrotation
			JOINT RightFoot
			{
				OFFSET 0.015774 -0.398415 -0.042312
				CHANNELS 3 Zrotation Yrotation Xrotation
				JOINT RightToe
				{
					OFFSET -0.025372 -0.048144 0.123348
					CHANNELS 3 Zrotation Yrotation Xrotation
					End Site
					{
						OFFSET 0.000000 0.000000 0.000000
					}
				}
			}
		}
	}
	JOINT Spine
	{
		OFFSET -0.002533 0.108963 -0.026696
		CHANNELS 3 Zrotation Yrotation Xrotation
		JOINT Spine1
		{
			OFFSET 0.005487 0.135180 0.001092
			CHANNELS 3 Zrotation Yrotation Xrotation
			JOINT Spine2
			{
				OFFSET 0.001457 0.052922 0.025425
				CHANNELS 3 Zrotation Yrotation Xrotation
				JOINT Neck
				{
					OFFSET -0.002778 0.213870 -0.042857
					CHANNELS 3 Zrotation Yrotation Xrotation
					JOINT Head
					{
						OFFSET 0.005152 0.064970 0.051349
						CHANNELS 3 Zrotation Yrotation Xrotation
						End Site
						{
							OFFSET 0.000000 0.000000 0.000000
						}
					}
				}
				JOINT LeftShoulder
				{
					OFFSET 0.078845 0.121749 -0.034090
					CHANNELS 3 Zrotation Yrotation Xrotation
					JOINT LeftArm
					{
						OFFSET 0.090977 0.030469 -0.008868
						CHANNELS 3 Zrotation Yrotation Xrotation
						JOINT LeftForeArm
						{
							OFFSET 0.259612 -0.012772 -0.027456
							CHANNELS 3 Zrotation Yrotation Xrotation
							JOINT LeftHand
							{
								OFFSET 0.249234 0.008986 -0.001171
								CHANNELS 3 Zrotation Yrotation Xrotation
								End Site
								{
									OFFSET 0.000000 0.000000 0.000000
								}
							}
						}
					}
				}
				JOINT RightShoulder
				{
					OFFSET -0.081759 0.118833 -0.038615
					CHANNELS 3 Zrotation Yrotation Xrotation
					JOINT RightArm
					{
						OFFSET -0.096012 0.032551 -0.009143
						CHANNELS 3 Zrotation Yrotation Xrotation
						JOINT RightForeArm
						{
							OFFSET -0.253742 -0.013329 -0.021401
							CHANNELS 3 Zrotation Yrotation Xrotation
							JOINT RightHand
							{
								OFFSET -0.255298 0.007772 -0.005559
								CHANNELS 3 Zrotation Yrotation Xrotation
								End Site
								{
									OFFSET 0.000000 0.000000 0.000000
								}
							}
						}
					}
				}
			}
		}
	}
}
MOTION
Frames: 6
Frame Time: 0.050000
0.000000 0.949421 0.000000 -0.240194 -3.437447 1.424119 4.355215 0.142118 3.124251 -2.184895 0.346143 -5.876801 4.265072 11.228696 12.169532 0.000000 0.000000 0.000000 -4.765941 0.155878 0.166466 1.689767 -0.191766 -1.051445 -1.968077 -7.863554 7.704902 0.000000 0.000000 0.000000 8.286944 0.024813 -0.980294 -5.636251 2.084571 -17.116470 -2.200521 6.326540 26.409838 9.945902 -3.460626 -25.939211 0.000000 0.000000 0.000000 -17.069381 -16.356778 6.567272 -56.933696 -4.286098 -6.902833 3.301414 -31.362214 0.488967 0.000000 0.000000 0.000000 22.879983 2.253043 1.270990 59.293494 4.606732 -6.080437 -0.743511 32.109228 1.789961 0.000000 0.000000 0.000000 
-0.000341 0.947747 0.001442 -0.237309 -3.891105 1.791687 4.472210 0.158959 3.456143 -2.121886 0.363569 -6.901072 4.443722 11.387459 11.584301 0.000000 0.000000 0.000000 -4.756978 0.198402 -0.441110 1.577972 -0.170803 -0.692847 -2.554869 -9.062018 7.593421 0.000000 0.000000 0.000000 8.615782 0.137881 -1.991902 -6.163239 2.237254 -17.068844 -2.359783 6.882434 26.997344 11.288485 -3.933332 -27.534899 0.000000 0.000000 0.000000 -16.756791 -17.025985 6.858994 -57.351959 -4.456248 -6.929919 4.759858 -30.694111 0.087073 0.000000 0.000000 0.000000 22.920908 2.231883 1.368747 60.652555 4.952596 -6.063165 -0.873012 31.702431 1.784349 0.000000 0.000000 0.000000 
-0.000632 0.947714 0.002454 -0.195171 -2.999963 1.765985 4.929562 0.107387 3.020593 -2.698969 0.376926 -5.895935 4.567386 11.730045 12.017419 0.000000 0.000000 0.000000 -4.867174 0.155184 0.229494 1.382167 -0.177699 -1.490060 -2.271960 -8.698567 8.547695 0.000000 0.000000 0.000000 8.542674 0.174438 -2.351037 -6.202406 2.263181 -17.253498 -2.489012 6.095077 27.582943 11.174730 -3.774684 -28.414186 0.000000 0.000000 0.000000 -17.060733 -16.788519 6.827487 -57.229249 -5.363148 -6.544786 3.671563 -27.327697 0.338123 0.000000 0.000000 0.000000 23.652911 2.457405 1.444626 59.529362 6.083588 -5.508311 -1.283701 28.921467 1.434230 0.000000 0.000000 0.000000 
-0.000970 0.947715 0.003421 -0.197713 -3.461332 1.783036 4.911496 0.138518 3.477158 -2.641639 0.384726 -6.494820 4.808516 12.109424 12.260353 0.000000 0.000000 0.000000 -4.897738 0.156890 0.323715 1.660944 -0.200160 -1.506352 -2.589229 -9.376400 8.567343 0.000000 0.000000 0.000000 8.696810 0.249834 -2.938498 -6.392256 2.307909 -17.412307 -2.432856 6.457439 28.204532 11.628467 -3.950598 -28.888231 0.000000 0.000000 0.000000 -16.632238 -18.221542 7.533376 -58.250539 -5.157354 -6.782211 5.435659 -27.204225 -0.068204 0.000000 0.000000 0.000000 23.599681 3.038575 1.843263 60.229383 6.432878 -5.418329 -2.899540 28.258990 1.046123 0.000000 0.000000 0.000000 
-0.001303 0.948102 0.004051 -0.291708 -3.401492 1.586436 5.091635 0.148293 3.764003 -2.693247 0.390365 -6.699107 4.883447 12.270793 12.517858 0.000000 0.000000 0.000000 -4.946604 0.128219 0.837741 1.621326 -0.204496 -1.798956 -2.746367 -9.828526 9.106807 0.000000 0.000000 0.000000 8.298127 0.244531 -2.908765 -5.671734 2.098372 -17.069635 -2.708060 6.312255 27.725601 11.738111 -3.996413 -28.950799 0.000000 0.000000 0.000000 -17.255037 -18.363587 7.658642 -58.213744 -5.063668 -6.756425 5.606981 -26.098338 -0.111668 0.000000 0.000000 0.000000 24.023185 3.578367 2.124192 59.776848 6.736975 -5.198487 -3.216550 27.465894 0.902158 0.000000 0.000000 0.000000 
-0.001604 0.948461 0.004358 -0.473830 -3.892732 1.581845 5.152131 0.164911 3.987575 -2.557817 0.389630 -6.951931 5.173419 12.686387 12.506564 0.000000 0.000000 0.000000 -4.909039 0.131608 0.853000 1.747905 -0.215621 -1.913221 -2.592570 -9.640055 9.361835 0.000000 0.000000 0.000000 8.216003 0.231772 -2.779621 -5.550166 2.043953 -17.264757 -2.556130 6.475317 27.459253 11.736066 -3.901142 -29.492447 0.000000 0.000000 0.000000 -17.402915 -18.637969 7.840665 -58.079089 -4.819086 -6.821496 5.040664 -25.696498 0.009356 0.000000 0.000000 0.000000 24.346660 3.868860 2.249463 59.459348 6.680008 -5.189469 -3.955713 27.282411 0.718921 0.000000 0.000000 0.000000 
